<svg xmlns="http://www.w3.org/2000/svg" width="18" height="17" fill="none" viewBox="0 0 18 17">
  <path fill="#9B9B9B" d="M12.954 0c1.397 0 2.57.471 3.521 1.414.95.942 1.425 2.093 1.425 3.45 0 .666-.14 1.338-.419 2.017-.28.68-.587 1.282-.922 1.809-.335.527-.901 1.206-1.698 2.037a56.74 56.74 0 0 1-2.012 2.017c-.545.513-1.418 1.296-2.62 2.35l-1.3 1.163-1.3-1.122c-1.173-1.081-2.04-1.878-2.598-2.391a45.802 45.802 0 0 1-2.034-2.017C2.201 9.896 1.635 9.217 1.3 8.69a10.437 10.437 0 0 1-.902-1.809A5.509 5.509 0 0 1 0 4.865c0-1.359.475-2.509 1.425-3.451C2.375.47 3.535 0 4.905 0c1.62 0 2.962.624 4.024 1.871C9.991.624 11.333 0 12.954 0Zm-3.94 13.804a147.85 147.85 0 0 0 2.997-2.723c.628-.596 1.32-1.31 2.075-2.141.754-.832 1.278-1.56 1.572-2.183.293-.624.44-1.255.44-1.892 0-.887-.3-1.622-.901-2.204-.601-.582-1.349-.873-2.243-.873a3.46 3.46 0 0 0-1.908.582c-.6.388-1.027.887-1.278 1.497H8.09c-.224-.61-.636-1.109-1.237-1.497a3.525 3.525 0 0 0-1.95-.582c-.894 0-1.634.29-2.221.873-.587.582-.88 1.317-.88 2.204 0 .637.14 1.268.419 1.892.28.623.803 1.35 1.572 2.183a45.845 45.845 0 0 0 2.096 2.14c.629.597 1.614 1.505 2.955 2.724l.084.083.084-.083Z"/>
</svg>
