<svg xmlns="http://www.w3.org/2000/svg" width="18" height="18" fill="none" viewBox="0 0 18 18">
  <path fill="#9B9B9B" fill-rule="evenodd" d="M0 9c0-4.879 4.121-9 9-9s9 4.121 9 9c0 2.871-1.433 5.47-3.6 7.132v.068h-.092C12.807 17.32 10.968 18 9 18s-3.807-.68-5.308-1.8H3.6v-.068C1.433 14.47 0 11.87 0 9Zm6.411 4.712a2.702 2.702 0 0 0-.944 1.522A7.037 7.037 0 0 0 9 16.2a7.037 7.037 0 0 0 3.533-.966A2.703 2.703 0 0 0 9.9 13.116H8.1a2.702 2.702 0 0 0-1.689.596Zm5.98-1.642a4.507 4.507 0 0 1 1.658 2.007C15.369 12.764 16.2 10.958 16.2 9c0-3.903-3.297-7.2-7.2-7.2S1.8 5.097 1.8 9c0 1.958.83 3.764 2.151 5.077A4.507 4.507 0 0 1 8.1 11.316h1.8a4.507 4.507 0 0 1 2.491.754ZM5.4 7.2c0-2.052 1.548-3.6 3.6-3.6s3.6 1.548 3.6 3.6-1.548 3.6-3.6 3.6-3.6-1.548-3.6-3.6Zm1.8 0C7.2 8.26 7.94 9 9 9s1.8-.74 1.8-1.8-.74-1.8-1.8-1.8-1.8.74-1.8 1.8Z" clip-rule="evenodd"/>
</svg>
